PathFileType	4	(X/Y/Z)	../Python\walking\Walking11\task.trc
DataRate	CameraRate	NumFrames	NumMarkers	Units	OrigDataRate	OrigDataStartFrame	OrigNumFrames
200.000000	200.000000	6	30	mm	200.000000	128	512
Frame#	Time	CLAV			STRN			RASI			LASI			RTH1			RTH2			RTH3			RTB1			RTB2			RTB3			RD5M			RTOE			LTH1			LTH2			LTH3			LTB1			LTB2			LTB3			LTOE			LD5M			PE03			PE02			RPSI			LPSI			T10			LHEE			C7			RHEE			RBAK			PE01			
		X1	Y1	Z1	X2	Y2	Z2	X3	Y3	Z3	X4	Y4	Z4	X5	Y5	Z5	X6	Y6	Z6	X7	Y7	Z7	X8	Y8	Z8	X9	Y9	Z9	X10	Y10	Z10	X11	Y11	Z11	X12	Y12	Z12	X13	Y13	Z13	X14	Y14	Z14	X15	Y15	Z15	X16	Y16	Z16	X17	Y17	Z17	X18	Y18	Z18	X19	Y19	Z19	X20	Y20	Z20	X21	Y21	Z21	X22	Y22	Z22	X23	Y23	Z23	X24	Y24	Z24	X25	Y25	Z25	X26	Y26	Z26	X27	Y27	Z27	X28	Y28	Z28	X29	Y29	Z29	X30	Y30	Z30	

129	0.64	400.5501403808596	1420.979858398438	192.723358154297	445.6254882812502	1226.786865234375	206.2369689941407	410.336364746094	1024.433715820313	342.2421264648439	413.8162841796877	1014.488586425782	71.44287109375003	461.7256469726565	778.1640625000005	395.1396484375002	422.8120422363284	730.7344360351565	384.0806579589846	463.0183105468752	701.3371582031252	375.5999755859376	586.3279418945315	394.179138183594	336.6328430175782	547.8779296875002	346.3042602539064	340.1797790527345	586.0257568359377	315.1334533691407	331.8283691406251	680.9317626953127	34.51275634765626	338.0893859863282	727.084167480469	60.75048446655276	302.5716552734376	287.9755249023439	713.3137817382815	51.46857833862308	253.0878906250001	680.3003540039065	66.16251373291018	297.0540161132814	637.2620849609377	71.94194030761722	199.1939849853517	356.1362304687501	105.7884826660157	162.6423797607422	324.0236206054689	118.4116134643555	205.8199005126954	279.2081604003907	120.8883514404297	304.6748657226564	30.33537483215333	194.3693389892579	256.1225585937501	18.20853424072266	144.7792663574219	238.3446807861329	1049.1591796875	196.7247924804689	244.0403442382814	1049.444946289063	247.7840118408204	250.8032989501954	1061.272094726563	270.0997619628907	243.0105590820314	1063.443481445313	170.8947143554688	218.7254028320314	1259.899536132813	187.4121704101563	88.51467895507815	41.71888732910158	208.6260375976564	287.8912658691407	1515.565307617188	174.9554595947266	523.999450683594	32.07208251953126	259.9634094238282	255.8980407714845	1436.438354492188	345.3369140625001	254.9075012207032	1108.980346679688	219.9603729248048	
130	0.645	406.9361572265627	1419.59228515625	192.8440399169923	451.6663818359377	1225.277587890625	206.3459777832032	416.6239318847659	1023.319458007813	342.6448974609376	419.793395996094	1013.281127929688	71.55814361572268	467.550476074219	776.5676269531255	395.3788757324221	428.5194091796877	729.2327880859377	384.3559265136721	468.660339355469	699.7085571289065	375.9619445800782	595.8237915039065	393.4688415527346	336.7311401367189	558.7747802734377	344.541229248047	340.2705383300782	597.7669067382815	314.465545654297	331.8341674804689	701.3327636718752	36.20327758789064	336.8678588867189	746.4478759765627	63.75129699707034	301.0586547851564	293.154266357422	712.4659423828127	51.55248641967776	258.0478515625001	679.6863403320315	66.19812011718753	301.7556152343751	636.4190673828127	72.18206787109378	201.6270446777345	356.0412902832032	106.0876388549805	164.8399200439454	324.1895751953126	118.671745300293	207.6881408691407	279.0694580078126	121.2478790283204	304.6972961425782	30.32506561279298	194.4687957763673	255.9957427978517	18.34790611267091	145.0238800048829	244.4005432128907	1047.73046875	197.1229858398439	250.1371917724611	1048.034790039063	248.1830902099611	256.8752746582032	1059.859375	270.4718627929689	248.9691467285157	1062.0341796875	171.305160522461	224.7820434570314	1258.820434570313	187.3123626708985	88.59657287597659	42.21953201293947	209.0968322753907	294.4041137695314	1514.37353515625	174.9866943359376	543.9089965820315	29.93105506896974	260.0093994140626	262.0899047851564	1435.207397460938	345.294647216797	260.8937377929689	1107.579345703125	220.3410949707032	
131	0.65	413.3365173339846	1418.191162109375	192.9776458740236	457.7351989746096	1223.758056640625	206.4736328125001	422.9656372070315	1022.166198730469	343.0807495117189	425.8254089355471	1012.076782226563	71.68464660644534	473.2661743164065	774.855834960938	395.644226074219	434.099548339844	727.6465454101565	384.6045532226565	474.1472167968752	697.9651489257815	376.3251342773439	605.153015136719	392.7684326171877	336.8297729492189	569.5210571289065	342.8451232910157	340.3871459960939	609.3061523437502	313.8698730468751	331.8287353515626	721.329284667969	38.18364334106447	335.602020263672	765.3732910156252	67.00350189208987	299.4920043945314	298.3624267578126	711.633239746094	51.60609817504886	263.0317993164064	679.0949707031252	66.21009826660159	306.4701232910157	635.5931396484377	72.39517974853518	204.053924560547	355.9934692382814	106.3716278076172	167.0337829589844	324.4071350097657	118.9314498901368	209.5486907958986	278.979949951172	121.5749588012696	304.7166137695314	30.31512260437013	194.5595855712892	255.8665466308595	18.48427200317384	145.2681732177735	250.5069580078126	1046.281494140625	197.5310516357423	256.2814331054689	1046.599975585938	248.5919342041017	262.9922180175782	1058.420532226563	270.8563537597657	254.9765930175782	1060.605712890625	171.7267456054688	230.8650360107423	1257.713500976563	187.2286529541016	88.689567565918	42.78688430786134	209.5457763671876	300.9260559082032	1513.163208007813	175.0254974365235	563.5065917968752	28.11971282958986	260.0303649902345	268.2883300781251	1433.955688476563	345.2645874023439	266.9253845214845	1106.1572265625	220.7380676269532	
132	0.655	419.7515258789065	1416.78173828125	193.1243896484376	463.8354187011721	1222.234375	206.619842529297	429.3638610839846	1020.978576660157	343.5473632812501	431.9168395996096	1010.876220703125	71.82183837890628	478.8842468261721	773.041870117188	395.9373474121096	439.5645141601565	725.9881591796877	384.8279113769534	479.4902038574221	696.1213989257815	376.6867980957032	614.3123779296877	392.079040527344	336.9262084960939	580.1081542968752	341.2182006835939	340.5287170410157	620.6336059570315	313.3445129394532	331.8111572265626	740.882995605469	40.43643951416017	334.3033752441407	783.8312988281255	70.48940277099612	297.8882751464845	303.5837402343751	710.8215942382815	51.63196945190433	268.0245361328126	678.532165527344	66.20628356933597	311.1828613281251	634.7893676757815	72.58283996582034	206.4764404296876	355.9952392578126	106.6418457031251	169.2253570556641	324.6782836914064	119.1911621093751	211.403289794922	278.9420471191407	121.8703079223633	304.7334899902345	30.30484008789064	194.6413879394532	255.7363739013673	18.6161117553711	145.5096740722657	256.6677856445314	1044.818359375	197.9477691650392	262.4765625000001	1045.146850585938	249.0093994140626	269.1578979492189	1056.962158203125	271.252166748047	261.0375061035157	1059.163452148438	172.1578674316407	236.9774169921876	1256.581420898438	187.1612854003907	88.794303894043	43.42541885375978	209.9681396484376	307.4566345214845	1511.938598632813	175.0724792480469	582.7573852539065	26.62200736999513	260.0174865722657	274.494354248047	1432.686157226563	345.247283935547	273.007049560547	1104.719848632813	221.1494750976564	
133	0.66	426.1816406250002	1415.369384765625	193.2845458984376	469.9707641601565	1220.712524414063	206.7845611572267	435.820739746094	1019.761352539063	344.0421142578126	438.0721740722659	1009.679565429688	71.96916961669925	484.417907714844	771.1403198242192	396.2597961425784	444.9286804199221	724.271423339844	385.0273132324221	484.703552246094	694.1936035156252	377.0439758300782	623.2974853515627	391.4004821777346	337.0188293457032	590.5252685546877	339.6610717773439	340.693084716797	631.7374267578127	312.8854980468751	331.7815856933595	759.9541625976565	42.93708419799806	332.9839172363282	801.7922363281255	74.1850509643555	296.2650756835939	308.8032531738282	710.037292480469	51.63406753540042	273.0126037597657	678.004089355469	66.19639587402347	315.8812866210939	634.0129394531252	72.74671936035159	208.8986358642579	356.0483398437501	106.8988723754883	171.4181671142579	325.004364013672	119.4500732421876	213.255584716797	278.9574584960939	122.1343154907227	304.748260498047	30.29363822937013	194.7138977050782	255.6068267822267	18.74202537536622	145.7457427978516	262.8868713378907	1043.3466796875	198.3716583251954	268.7259826660157	1043.681762695313	249.4341125488282	275.3760681152345	1055.491088867188	271.6579895019532	267.1565551757814	1057.712890625	172.596664428711	243.1222991943361	1255.426879882813	187.110336303711	88.91147613525393	44.13932037353517	210.3584747314454	313.9954223632814	1510.703979492188	175.1282653808594	601.624694824219	25.41797637939455	259.9607238769532	280.7089843750001	1431.402465820313	345.2431945800782	279.1434936523439	1103.273193359375	221.5731658935548	
134	0.665	432.6272888183596	1413.959350585938	193.4583892822267	476.1449279785159	1219.19873046875	206.9677276611329	442.3380126953127	1018.519958496094	344.5623168945314	444.2960510253909	1008.487121582032	72.12609863281253	489.882019042969	769.1672363281255	396.612976074219	450.2085571289065	722.5112915039065	385.2040100097659	489.8044433593752	692.1997680664065	377.3934631347657	632.1028442382815	390.7311096191409	337.106903076172	600.758972167969	338.172576904297	340.8765869140626	642.6042480468752	312.4864807128907	331.7408447265626	778.5017089843755	45.65319442749025	331.655487060547	819.225952148438	78.05963134765628	294.6407470703126	314.0081787109376	709.2869262695315	51.61767578125003	277.9851684570314	677.5169067382815	66.19145202636722	320.5556640625001	633.2689208984377	72.88834381103518	211.3264923095704	356.1539001464845	107.1423721313477	173.6177520751954	325.3861694335939	119.7061157226563	215.1109466552736	279.0272521972657	122.3669815063477	304.7611083984376	30.2810688018799	194.7768096923829	255.4796905517579	18.86078262329102	145.9736022949219	269.1679077148439	1041.872802734375	198.8010711669923	275.032928466797	1042.21142578125	249.8645172119142	281.6502685546876	1054.01416015625	272.0722656250001	273.3384094238282	1056.259521484375	173.0411224365235	249.3029174804689	1254.252563476563	187.0757751464844	89.04193115234378	44.93252182006837	210.7109375000001	320.5420227050782	1509.463745117188	175.1934356689454	620.0694580078127	24.4837989807129	259.848846435547	286.9333496093751	1430.107666015625	345.2528076171876	285.3392639160157	1101.822998046875	222.0067291259767	
